<?xml version="1.0" encoding="utf-8"?>
<!-- Generator: Adobe Illustrator 26.1.0, SVG Export Plug-In . SVG Version: 6.00 Build 0)  -->
<svg version="1.1" id="Layer_1" xmlns="http://www.w3.org/2000/svg" xmlns:xlink="http://www.w3.org/1999/xlink" x="0px" y="0px"
	 viewBox="0 0 1920 192" style="enable-background:new 0 0 1920 192;" xml:space="preserve">
<style type="text/css">
	.st0{stroke:#231F20;stroke-miterlimit:10;}
</style>
<path class="st0" d="M1920.1,0L0,0c26.6,37.1,65.5,77.2,115.9,81.1c56.6,4.4,79.1-40.6,138.4-35.6c66.5,5.5,67.9,64.6,131.5,75.3
	c82.5,13.9,117.3-79.3,212.3-68.5c57.1,6.4,54,41.2,112.3,47.9c88.1,10.1,112.6-67.4,205.5-64.4c70.1,2.2,74.8,47.1,147.9,43.8
	c65.9-2.9,82.3-40.3,135.6-31.5c55.8,9.3,52.4,52.5,105.5,69.9c88.1,28.8,144.2-74.7,252.1-53.4c55.7,11,48.8,40.2,115.1,52.1
	c70.4,12.6,102.8-15.8,158.9,2.7c40.8,13.5,69.4,43.6,89.1,72.6V0z"/>
</svg>
