<?xml version="1.0" encoding="utf-8"?>
<!-- Generator: Adobe Illustrator 26.1.0, SVG Export Plug-In . SVG Version: 6.00 Build 0)  -->
<svg version="1.1" id="Layer_1" xmlns="http://www.w3.org/2000/svg" xmlns:xlink="http://www.w3.org/1999/xlink" x="0px" y="0px"
	 viewBox="0 0 1920 192" style="enable-background:new 0 0 1920 192;" xml:space="preserve">
<style type="text/css">
	.st0{stroke:#231F20;stroke-miterlimit:10;}
</style>
<path class="st0" d="M0,192c19.7-29,48.3-59.1,89.1-72.6c56.1-18.5,88.5,9.9,158.9-2.7c66.3-11.9,59.4-41.1,115.1-52.1
	c107.9-21.3,164,82.2,252.1,53.4c53.1-17.4,49.7-60.6,105.5-69.9c53.3-8.8,69.7,28.6,135.6,31.5c73.1,3.3,77.8-41.6,147.9-43.8
	c92.9-3,117.4,74.5,205.5,64.4c58.3-6.7,55.2-41.5,112.3-47.9c95-10.8,129.8,82.4,212.3,68.5c63.6-10.7,65-69.8,131.5-75.3
	c59.3-5,81.8,40,138.4,35.6c50.4-3.9,89.3-44,115.9-81.1H0V192z"/>
</svg>
