<?xml version="1.0" encoding="utf-8"?>
<svg version="1.1" id="ac385bb2-5931-4623-bb9c-a43da9d90665"
	 xmlns="http://www.w3.org/2000/svg" xmlns:xlink="http://www.w3.org/1999/xlink" x="0px" y="0px" viewBox="0 0 110.3 32.8"
	 style="enable-background:new 0 0 110.3 32.8;" xml:space="preserve">
<style type="text/css">
	.st0{fill:#007050;}
</style>
<g>
	<g>
		<path class="st0" d="M19.7,0h-1.1v20.7h1.1V0z"/>
		<path class="st0" d="M19.7,27.7h-1.1v5.1h1.1V27.7z"/>
		<path class="st0" d="M26.6,0h-1.1v20.7h1.1V0z"/>
		<path class="st0" d="M26.6,27.7h-1.1v5.1h1.1V27.7z"/>
		<path class="st0" d="M0,11.6v1.1h18.9v-1.1H0z"/>
		<path class="st0" d="M26.6,11.6v1.1h11.6v-1.1H26.6z"/>
		<path class="st0" d="M6,0H4.9v5.1H6V0z"/>
		<path class="st0" d="M6,12.1H4.9v20.7H6V12.1z"/>
		<path class="st0" d="M12.8,0h-1.1v5.1h1.1V0z"/>
		<path class="st0" d="M12.8,12.1h-1.1v20.7h1.1V12.1z"/>
		<path class="st0" d="M0,4.7v1.1h18.9V4.7H0z"/>
		<path class="st0" d="M26.6,4.7v1.1h11.6V4.7H26.6z"/>
		<path class="st0" d="M38.2,0.2h-5.6v5.6h5.6V0.2z"/>
		<path class="st0" d="M38.2,11.6h-5.6v21.2h5.6V11.6z"/>
		<path class="st0" d="M65.8,32.8L51.7,11.6h6.8l10.3,15.5h5.4v5.7H65.8z"/>
		<path class="st0" d="M88.4,0.2l14.1,21.2h-6.8L85.3,5.8h-5.4V0.2H88.4z"/>
		<path class="st0" d="M85.6,11.6H80v21.2h5.6V11.6z"/>
		<path class="st0" d="M74.3,0.2h-5.6v21.3h5.6V0.2z"/>
		<path class="st0" d="M104.6,11.6h5.7v21.2h-6.9l-3.9-5.6h5.1C104.6,27.2,104.6,11.6,104.6,11.6z"/>
		<path class="st0" d="M49.5,32.8h-5.7V0.2h6.9l3.9,5.6h-5.1C49.5,5.8,49.5,32.8,49.5,32.8z"/>
		<path class="st0" d="M110.3,0.2h-5.6v5.6h5.6V0.2z"/>
		<path class="st0" d="M0,27.2v1.1h5.4v-1.1H0z"/>
		<path class="st0" d="M0,20.3v1.1h5.4v-1.1H0z"/>
		<path class="st0" d="M12.5,27.2v1.1h17.3v-1.1H12.5z"/>
		<path class="st0" d="M12.5,20.3v1.1h17.3v-1.1H12.5z"/>
	</g>
</g>
</svg>
