<svg id="ac385bb2-5931-4623-bb9c-a43da9d90665" data-name="Layer 1" xmlns="http://www.w3.org/2000/svg" xmlns:xlink="http://www.w3.org/1999/xlink" viewBox="0 0 110.3 32.8"><defs><style>.e90eed60-1670-4b9f-a6a5-d78509960763{fill:none;}.a7cc6f09-7fb1-44f0-b0bb-34f263e3645a{clip-path:url(#a1fadc5c-8992-4810-8619-03c672baa280);}.eec4caa9-ee6a-4712-ac5f-da8f7d23348d{fill:#262626;}</style><clipPath id="a1fadc5c-8992-4810-8619-03c672baa280"><rect class="e90eed60-1670-4b9f-a6a5-d78509960763" width="335" height="37"/></clipPath></defs><g class="a7cc6f09-7fb1-44f0-b0bb-34f263e3645a"><path class="eec4caa9-ee6a-4712-ac5f-da8f7d23348d" d="M19.69,0H18.62V20.69h1.07Z"/><path class="eec4caa9-ee6a-4712-ac5f-da8f7d23348d" d="M19.69,27.73H18.62v5.09h1.07Z"/><path class="eec4caa9-ee6a-4712-ac5f-da8f7d23348d" d="M26.62,0H25.55V20.69h1.07Z"/><path class="eec4caa9-ee6a-4712-ac5f-da8f7d23348d" d="M26.62,27.73H25.55v5.09h1.07Z"/><path class="eec4caa9-ee6a-4712-ac5f-da8f7d23348d" d="M0,11.61v1.07H18.86V11.61Z"/><path class="eec4caa9-ee6a-4712-ac5f-da8f7d23348d" d="M26.62,11.61v1.07H38.2V11.61Z"/><path class="eec4caa9-ee6a-4712-ac5f-da8f7d23348d" d="M6,0H4.91V5.11H6Z"/><path class="eec4caa9-ee6a-4712-ac5f-da8f7d23348d" d="M6,12.15H4.91V32.82H6Z"/><path class="eec4caa9-ee6a-4712-ac5f-da8f7d23348d" d="M12.83,0H11.76V5.11h1.07Z"/><path class="eec4caa9-ee6a-4712-ac5f-da8f7d23348d" d="M12.83,12.15H11.76V32.82h1.07Z"/><path class="eec4caa9-ee6a-4712-ac5f-da8f7d23348d" d="M0,4.73V5.8H18.86V4.73Z"/><path class="eec4caa9-ee6a-4712-ac5f-da8f7d23348d" d="M26.62,4.73V5.8H38.2V4.73Z"/><path class="eec4caa9-ee6a-4712-ac5f-da8f7d23348d" d="M38.2.17H32.57V5.8H38.2Z"/><path class="eec4caa9-ee6a-4712-ac5f-da8f7d23348d" d="M38.2,11.61H32.57V32.82H38.2Z"/><path class="eec4caa9-ee6a-4712-ac5f-da8f7d23348d" d="M65.81,32.82,51.7,11.6h6.83L68.88,27.12h5.41v5.7Z"/><path class="eec4caa9-ee6a-4712-ac5f-da8f7d23348d" d="M88.42.17l14.11,21.22H95.69L85.31,5.81H79.94V.17Z"/><path class="eec4caa9-ee6a-4712-ac5f-da8f7d23348d" d="M85.57,11.61H79.94V32.82h5.63Z"/><path class="eec4caa9-ee6a-4712-ac5f-da8f7d23348d" d="M74.3.17H68.67v21.3H74.3Z"/><path class="eec4caa9-ee6a-4712-ac5f-da8f7d23348d" d="M104.62,11.61h5.68V32.82h-6.88l-3.86-5.61h5.06Z"/><path class="eec4caa9-ee6a-4712-ac5f-da8f7d23348d" d="M49.52,32.82H43.84V.17h6.88l3.86,5.62H49.52Z"/><path class="eec4caa9-ee6a-4712-ac5f-da8f7d23348d" d="M110.3.17h-5.63V5.8h5.63Z"/><path class="eec4caa9-ee6a-4712-ac5f-da8f7d23348d" d="M0,27.19v1.07H5.44V27.19Z"/><path class="eec4caa9-ee6a-4712-ac5f-da8f7d23348d" d="M0,20.32v1.07H5.44V20.32Z"/><path class="eec4caa9-ee6a-4712-ac5f-da8f7d23348d" d="M12.46,27.19v1.07H29.79V27.19Z"/><path class="eec4caa9-ee6a-4712-ac5f-da8f7d23348d" d="M12.46,20.32v1.07H29.79V20.32Z"/></g></svg>