<svg id="bf46fb80-21a2-45d9-b20a-2c0fff2c7eff" data-name="Layer 1" xmlns="http://www.w3.org/2000/svg" viewBox="0 0 70.45 79.91"><defs><style>.a83b6498-8d87-4ec0-9caa-2fba9530c3ea{fill:#830e21;}</style></defs><path class="a83b6498-8d87-4ec0-9caa-2fba9530c3ea" d="M67,41.84a13.4,13.4,0,0,0,2.2-7.37V26.65a11.56,11.56,0,0,0-5.76-10L34.6,0,0,20v40l34.6,20L63.76,63a13.5,13.5,0,0,0,6.69-11.63V49.22A9.53,9.53,0,0,0,67,41.84Zm-28.56.33h0L61.51,28.86v5.61a5.76,5.76,0,0,1-2.92,5L38.44,51.05ZM7.69,24.41,34.6,8.88l23,13.33h0L30.76,37.73V68.81L7.69,55.49Zm55.06,27a5.75,5.75,0,0,1-2.87,5L38.45,68.81V59.93L60.26,47.39a1.61,1.61,0,0,1,1.53.17,1.91,1.91,0,0,1,1,1.66Z"/></svg>