<?xml version="1.0" encoding="utf-8"?>
<!-- Generator: Adobe Illustrator 26.1.0, SVG Export Plug-In . SVG Version: 6.00 Build 0)  -->
<svg version="1.1" id="a867cfef-1950-4daf-9f96-3312f5c94cb5"
	 xmlns="http://www.w3.org/2000/svg" xmlns:xlink="http://www.w3.org/1999/xlink" x="0px" y="0px" viewBox="0 0 173.8 186.6"
	 style="enable-background:new 0 0 173.8 186.6;" xml:space="preserve">
<style type="text/css">
	.st0{fill:#7F0F01;}
	.st1{fill:#FE5943;}
</style>
<g>
	<path class="st0" d="M86.9,12.8v4c45.7,0,82.9,37.2,82.9,82.9s-37.2,82.9-82.9,82.9S4,145.4,4,99.7s37.2-82.9,82.9-82.9V12.8
		 M87.9,155.8L87.9,155.8l9.6,0l-0.7-0.7c27.2-4.3,48.1-27.9,48.1-56.4c0-31.5-25.6-57.1-57.1-57.1c-31.5,0-57.1,25.6-57.1,57.1
		C30.8,130.2,56.4,155.8,87.9,155.8 M86.9,12.8C38.9,12.8,0,51.7,0,99.7s38.9,86.9,86.9,86.9s86.9-38.9,86.9-86.9
		S134.9,12.8,86.9,12.8L86.9,12.8z M87.9,151.8c-29.3,0-53.1-23.8-53.1-53.1c0-29.3,23.8-53.1,53.1-53.1c0,0,0,0,0,0
		c29.3,0,53.1,23.8,53.1,53.1c0,0,0,0,0,0C140.9,128,117.2,151.8,87.9,151.8C87.9,151.8,87.9,151.8,87.9,151.8L87.9,151.8
		C87.9,151.8,87.9,151.8,87.9,151.8L87.9,151.8z"/>
</g>
<path class="st0" d="M64.7,102c-1.7,1.8-3.3,3.7-4.6,5.4c1.6,2.8,0.7,6.3-2.1,7.9c-0.9,0.5-1.9,0.8-2.9,0.8c-0.2,0-0.4,0-0.6,0
	c-1.7,3.6-2.1,6.3-1.1,7.7c0.7,0.9,2.4,1.5,4.8,1.5c3.8,0,8.7-1.2,14-3.4c0.3-3.2,3.1-5.5,6.3-5.2c0.9,0.1,1.8,0.4,2.6,0.9
	c0.6-0.3,1.2-0.7,1.8-1c-2-1.3-4-2.7-5.9-4.1C72.7,109.2,68.6,105.7,64.7,102z"/>
<path class="st0" d="M86.9,38.9c-33.6,0-60.8,27.2-60.8,60.8s27.2,60.8,60.8,60.8s60.8-27.2,60.8-60.8
	C147.7,66.1,120.5,38.9,86.9,38.9C86.9,38.9,86.9,38.9,86.9,38.9z M124.6,120.6c0.3,1.9-0.1,3.9-1.2,5.5c-1.5,2.1-4.3,3.1-8,3.1
	c-7.1,0-17.5-3.7-28.5-10.3c-1.1,0.6-2.1,1.3-3.2,1.8c0.1,0.5,0.2,1.1,0.2,1.6c0,3.2-2.6,5.8-5.8,5.8c-1.9,0-3.7-0.9-4.7-2.5
	c-5.8,2.3-11,3.5-15,3.5c-3.7,0-6.5-1-8-3.1c-2-2.7-1.6-6.9,0.7-11.8c-2.2-2.3-2.1-5.9,0.1-8.1c1.1-1,2.5-1.6,4-1.6
	c0.6,0,1.3,0.1,1.9,0.3c1.5-1.9,3.1-3.8,4.9-5.7C51.4,88.1,46.4,77.4,50.2,72.2c1.5-2.1,4.4-3.1,8-3.1c2.7,0.1,5.3,0.4,7.9,1.2
	c2-2.5,5.7-2.8,8.1-0.8c1.3,1.1,2.1,2.7,2.1,4.4l0,0c3.6,1.6,7,3.4,10.4,5.4c11-6.6,21.4-10.3,28.5-10.3c3.7,0,6.5,1,8,3.1
	c2,2.7,1.6,6.8-0.6,11.7c2.1,2.4,1.9,6-0.5,8.1c-1.1,0.9-2.4,1.5-3.8,1.5c-0.5,0-1.1-0.1-1.6-0.2c-1.5,1.9-3.2,3.9-5.1,5.9
	c3.3,3.4,6.3,7.2,8.8,11.2h0.4c3.2,0,5.8,2.6,5.8,5.8C126.7,117.8,125.9,119.5,124.6,120.6L124.6,120.6z"/>
<path class="st0" d="M77.1,85.9c2-1.5,4-2.8,5.9-4.1c-2.7-1.5-5.3-2.9-7.9-4.1c-2.1,2.4-5.7,2.7-8.1,0.6c-1.3-1.1-2-2.6-2-4.3
	c-2.2-0.6-4.4-0.9-6.6-0.9c-2.4,0-4.1,0.5-4.8,1.5c-2.1,2.8,1.8,11.6,11.3,21.7C68.6,92.5,72.7,89.1,77.1,85.9z"/>
<path class="st0" d="M106.1,99.2c-3.7-3.6-7.7-6.9-11.9-10c-2.4-1.8-4.9-3.5-7.4-5c-2.5,1.6-4.9,3.2-7.4,5c-4.2,3.1-8.1,6.4-11.9,10
	c3.7,3.6,7.7,6.9,11.9,10c2.4,1.8,4.9,3.5,7.4,5c2.5-1.6,5-3.2,7.4-5C98.4,106.1,102.4,102.8,106.1,99.2z"/>
<path class="st0" d="M108.9,96.3c1.8-1.9,3.3-3.7,4.7-5.4c-1.7-2.7-0.9-6.3,1.8-8c0.9-0.6,2-0.9,3.1-0.9c0.3,0,0.5,0,0.8,0.1
	c1.6-3.5,1.9-6.1,1-7.4c-0.7-1-2.4-1.5-4.8-1.5c-6.2,0-15.2,3.2-24.7,8.7c2,1.3,4,2.7,5.9,4.1C101,89.1,105.1,92.6,108.9,96.3z"/>
<path class="st0" d="M115.2,116.1c0-1.5,0.6-2.9,1.7-4c-2.3-3.6-5-6.9-7.9-10c-3.9,3.7-8,7.2-12.3,10.4c-2,1.5-4,2.8-5.9,4.1
	c9.5,5.4,18.5,8.7,24.7,8.7c2.4,0,4.1-0.5,4.8-1.5c0.4-0.6,0.6-1.2,0.6-1.9C117.6,121.8,115.2,119.2,115.2,116.1z"/>
<g>
	<polygon class="st1" points="73,26.8 86.9,2 100.8,26.8 86.9,51.4 	"/>
	<path class="st0" d="M86.9,4.1l12.8,22.7L86.9,49.4L74.1,26.8L86.9,4.1 M86.9,0l-15,26.8l15,26.6l15-26.6L86.9,0L86.9,0z"/>
</g>
<polygon class="st0" points="84,13 89.8,13 84.2,25.5 96,24 86.4,46.2 89.7,29.6 78.1,30.5 "/>
</svg>
