<svg id="a867cfef-1950-4daf-9f96-3312f5c94cb5" data-name="Layer 1" xmlns="http://www.w3.org/2000/svg" viewBox="0 0 173.78 186.57"><defs><style>.a66cd711-7382-44a8-a949-83dc7bc761b2{fill:#eee;}.a253c4e3-b76b-43ea-9b9f-2117455a5573{fill:#a50b0b;}.f5709efe-7ff1-45b1-9da4-8624e16377d9{fill:#ddd;}</style></defs><path class="a66cd711-7382-44a8-a949-83dc7bc761b2" d="M86.89,12.79a86.89,86.89,0,1,0,86.89,86.89A86.89,86.89,0,0,0,86.89,12.79Zm1,139a53.08,53.08,0,1,1,53.07-53.08A53.08,53.08,0,0,1,87.86,151.76Z"/><path class="a253c4e3-b76b-43ea-9b9f-2117455a5573" d="M64.73,102c-1.74,1.85-3.28,3.65-4.64,5.38a5.77,5.77,0,0,1-5,8.68,5.12,5.12,0,0,1-.56,0c-1.7,3.59-2.07,6.32-1.07,7.68.7.94,2.41,1.47,4.83,1.47,3.8,0,8.66-1.22,14-3.42a5.76,5.76,0,0,1,8.87-4.26q.89-.48,1.77-1c-2-1.29-4-2.65-5.93-4.11A119,119,0,0,1,64.73,102Z"/><path class="a253c4e3-b76b-43ea-9b9f-2117455a5573" d="M86.89,38.91a60.77,60.77,0,1,0,60.77,60.77A60.76,60.76,0,0,0,86.89,38.91Zm37.71,81.65a7.68,7.68,0,0,1-1.22,5.53c-1.54,2.1-4.35,3.1-8,3.1-7.11,0-17.51-3.7-28.52-10.28-1.07.64-2.14,1.26-3.19,1.84a6.08,6.08,0,0,1,.23,1.61,5.77,5.77,0,0,1-10.51,3.3c-5.76,2.3-10.95,3.53-15,3.53-3.69,0-6.5-1-8-3.1-2-2.71-1.6-6.87.69-11.8a5.76,5.76,0,0,1,4.16-9.76,5.67,5.67,0,0,1,1.86.31c1.47-1.87,3.13-3.77,4.94-5.69C51.4,88.08,46.41,77.43,50.25,72.21c1.55-2.1,4.36-3.1,8-3.1a32.24,32.24,0,0,1,7.93,1.16,5.77,5.77,0,0,1,10.22,3.67v0a99.13,99.13,0,0,1,10.37,5.43c11-6.58,21.41-10.28,28.52-10.28,3.69,0,6.5,1,8,3.1,2,2.69,1.61,6.82-.64,11.7a5.77,5.77,0,0,1-4.32,9.6,6.06,6.06,0,0,1-1.6-.23c-1.51,1.92-3.21,3.89-5.09,5.87a70,70,0,0,1,8.81,11.17l.44,0a5.77,5.77,0,0,1,3.62,10.26Z"/><path class="a253c4e3-b76b-43ea-9b9f-2117455a5573" d="M77.05,85.89c2-1.46,4-2.82,5.93-4.11-2.7-1.54-5.35-2.91-7.92-4.08a5.77,5.77,0,0,1-10.15-3.65,28.21,28.21,0,0,0-6.61-.94c-2.42,0-4.13.52-4.83,1.47-2.08,2.83,1.75,11.59,11.26,21.71A119,119,0,0,1,77.05,85.89Z"/><path class="a253c4e3-b76b-43ea-9b9f-2117455a5573" d="M106.09,99.15a113.05,113.05,0,0,0-11.87-10c-2.45-1.81-4.93-3.49-7.4-5-2.47,1.55-4.95,3.23-7.4,5a112,112,0,0,0-11.87,10,112,112,0,0,0,11.87,10c2.45,1.8,4.93,3.49,7.4,5,2.47-1.55,5-3.24,7.4-5A113.05,113.05,0,0,0,106.09,99.15Z"/><path class="a253c4e3-b76b-43ea-9b9f-2117455a5573" d="M108.9,96.29c1.76-1.87,3.31-3.68,4.68-5.42A5.77,5.77,0,0,1,118.42,82a5.16,5.16,0,0,1,.79.06c1.6-3.47,1.93-6.11,1-7.44-.69-1-2.41-1.47-4.82-1.47-6.2,0-15.22,3.25-24.69,8.67,2,1.29,4,2.65,5.94,4.11A118.81,118.81,0,0,1,108.9,96.29Z"/><path class="a253c4e3-b76b-43ea-9b9f-2117455a5573" d="M115.2,116.07a5.78,5.78,0,0,1,1.65-4,69.09,69.09,0,0,0-7.95-10,118.81,118.81,0,0,1-12.31,10.4c-2,1.46-4,2.82-5.94,4.11,9.48,5.42,18.49,8.67,24.69,8.67,2.41,0,4.13-.53,4.82-1.47a3.26,3.26,0,0,0,.55-1.89A5.77,5.77,0,0,1,115.2,116.07Z"/><polygon class="f5709efe-7ff1-45b1-9da4-8624e16377d9" points="101.94 26.79 86.89 53.43 71.85 26.79 86.89 0 101.94 26.79"/><polygon class="a253c4e3-b76b-43ea-9b9f-2117455a5573" points="84.02 13 89.83 13 84.17 25.52 96.04 23.96 86.43 46.17 89.72 29.59 78.14 30.53 84.02 13"/></svg>