<?xml version="1.0" encoding="utf-8"?>
<svg version="1.1" id="e11934e5-07f1-419d-9ba7-46bf452399ea"
	 xmlns="http://www.w3.org/2000/svg" xmlns:xlink="http://www.w3.org/1999/xlink" x="0px" y="0px" viewBox="0 0 258.2 258.2"
	 style="enable-background:new 0 0 258.2 258.2;" xml:space="preserve">
<style type="text/css">
	.st0{fill-rule:evenodd;clip-rule:evenodd;fill:#FBE39D;}
	.st1{fill-rule:evenodd;clip-rule:evenodd;fill:#007050;}
</style>
<path class="st0" d="M32.8,117.4c21.2-4.1,31.5-2.2,32.3,16.5c20.1-12.4,28.4,11.6,22,17.1c-11.7-9.5-18.1-0.4-10.8,11.3
	c4.8,6.4,10.7,9,18.6,8.8c7.6-0.6,14-3.6,18.5-9.9c8.1-13.2-8.4-27.7-12-11.5c-17.6-8.9-11.8-35.7,13.8-31.2
	c-7.6-18.4-2-37.5,13.8-50.5c15.9,13,21.4,32,13.8,50.5c25.6-4.5,31.3,22.3,13.8,31.2c-3.6-16.2-20.2-1.6-12,11.5
	c4.5,6.2,10.9,9.2,18.5,9.9c7.9,0.2,13.9-2.4,18.6-8.8c7.2-11.5,0.6-21.1-10.8-11.3c-6.3-5.4,2.3-29.2,22-17.1
	c0.8-18.7,11.2-20.6,32.3-16.5c-23.5,37.5-35.8,73.5-44.6,116.5l-51.5-86.5l0,0c-18.1,18.5-39.4,60.8-51.8,86.2
	C69.5,196.6,53.6,150.6,32.8,117.4z"/>
<path class="st1" d="M129.1,0c71.1,0,129.1,58,129.1,129.2s-58,129-129.1,129V147.4c24.3,17.4,43.9,58.8,51.6,86.5
	c31.7-31.2,53.9-84.2,54.6-116.1h-8.8V88.6h8.8l-30-37.2l-30.1,37.2h8.8v29.3h-26.5v-43h11.7l-40.1-49.7l0,0V0z M129.1,203.8v-54.3
	c-18,17-37.6,57.2-43.5,91.6c9.9,8.1,20.7,14,31.8,16.6C51.8,251.7,0,196.3,0,129.2C0,73.5,35.6,25.9,85.1,7.8l22.3,7.9L96.8,23H129
	V7.4H86.1c13.8-4.9,28.3-7.4,43-7.4v25.2L89,74.9h11.7v43H74.2V88.6H83L53,51.3L22.9,88.6h8.8v29.3h-8.8
	c-0.1,31.9,22.4,84.5,54.4,115.8c9.5-34.1,31.6-71,51.8-86.2l0,0V203.8z"/>
</svg>
