<?xml version="1.0" encoding="utf-8"?>
<svg version="1.1" id="bf46fb80-21a2-45d9-b20a-2c0fff2c7eff"
	 xmlns="http://www.w3.org/2000/svg" xmlns:xlink="http://www.w3.org/1999/xlink" x="0px" y="0px" viewBox="0 0 70.4 79.9"
	 style="enable-background:new 0 0 70.4 79.9;" xml:space="preserve">
<style type="text/css">
	.st0{fill:#007050;}
</style>
<path class="st0" d="M67,41.8c1.4-2.2,2.2-4.8,2.2-7.4v-7.8c0-4.1-2.2-7.9-5.8-10L34.6,0L0,20v40l34.6,20l29.2-17
	c4.1-2.4,6.7-6.8,6.7-11.6v-2.1C70.5,46.4,69.2,43.7,67,41.8z M38.4,42.2L38.4,42.2l23.1-13.3v5.6c0,2.1-1.1,4-2.9,5L38.4,51V42.2z
	 M7.7,24.4L34.6,8.9l23,13.3l0,0L30.8,37.7v31.1L7.7,55.5V24.4z M62.8,51.4c0,2.1-1.1,4-2.9,5L38.5,68.8v-8.9l21.8-12.5
	c0.5-0.2,1.1-0.1,1.5,0.2c0.6,0.3,1,1,1,1.7V51.4z"/>
</svg>
