<?xml version="1.0" encoding="utf-8"?>
<svg version="1.1" id="a867cfef-1950-4daf-9f96-3312f5c94cb5"
	 xmlns="http://www.w3.org/2000/svg" xmlns:xlink="http://www.w3.org/1999/xlink" x="0px" y="0px" viewBox="0 0 173.8 186.6"
	 style="enable-background:new 0 0 173.8 186.6;" xml:space="preserve">
<style type="text/css">
	.st0{fill:#DE6A20;}
</style>
<path class="st0" d="M64.7,102c-1.7,1.8-3.3,3.7-4.6,5.4c1.6,2.8,0.7,6.3-2.1,7.9c-0.9,0.5-1.9,0.8-2.9,0.8c-0.2,0-0.4,0-0.6,0
	c-1.7,3.6-2.1,6.3-1.1,7.7c0.7,0.9,2.4,1.5,4.8,1.5c3.8,0,8.7-1.2,14-3.4c0.3-3.2,3.1-5.5,6.3-5.2c0.9,0.1,1.8,0.4,2.6,0.9
	c0.6-0.3,1.2-0.7,1.8-1c-2-1.3-4-2.7-5.9-4.1C72.7,109.2,68.6,105.7,64.7,102z"/>
<path class="st0" d="M77.1,85.9c2-1.5,4-2.8,5.9-4.1c-2.7-1.5-5.3-2.9-7.9-4.1c-2.1,2.4-5.7,2.7-8.1,0.6c-1.3-1.1-2-2.6-2-4.3
	c-2.2-0.6-4.4-0.9-6.6-0.9c-2.4,0-4.1,0.5-4.8,1.5c-2.1,2.8,1.8,11.6,11.3,21.7C68.6,92.5,72.7,89.1,77.1,85.9z"/>
<path class="st0" d="M106.1,99.2c-3.7-3.6-7.7-6.9-11.9-10c-2.4-1.8-4.9-3.5-7.4-5c-2.5,1.6-4.9,3.2-7.4,5c-4.2,3.1-8.1,6.4-11.9,10
	c3.7,3.6,7.7,6.9,11.9,10c2.4,1.8,4.9,3.5,7.4,5c2.5-1.6,5-3.2,7.4-5C98.4,106.1,102.4,102.8,106.1,99.2z"/>
<path class="st0" d="M108.9,96.3c1.8-1.9,3.3-3.7,4.7-5.4c-1.7-2.7-0.9-6.3,1.8-8c0.9-0.6,2-0.9,3.1-0.9c0.3,0,0.5,0,0.8,0.1
	c1.6-3.5,1.9-6.1,1-7.4c-0.7-1-2.4-1.5-4.8-1.5c-6.2,0-15.2,3.2-24.7,8.7c2,1.3,4,2.7,5.9,4.1C101,89.1,105.1,92.6,108.9,96.3z"/>
<path class="st0" d="M115.2,116.1c0-1.5,0.6-2.9,1.7-4c-2.3-3.6-5-6.9-7.9-10c-3.9,3.7-8,7.2-12.3,10.4c-2,1.5-4,2.8-5.9,4.1
	c9.5,5.4,18.5,8.7,24.7,8.7c2.4,0,4.1-0.5,4.8-1.5c0.4-0.6,0.6-1.2,0.6-1.9C117.6,121.8,115.2,119.2,115.2,116.1z"/>
<g>
	<path class="st0" d="M141,98.7c-0.1,29.3-23.8,53.1-53.1,53.1S34.8,128,34.8,98.7c0-27.9,21.6-50.8,48.9-52.9L81.5,42
		C53,45.1,30.7,69.3,30.7,98.7c0.1,31.5,25.7,57.1,57.2,57.1h9.6l-0.7-0.7c27.2-4.3,48.1-27.9,48.1-56.4c0-30-23.2-54.6-52.6-56.9
		l-2.2,3.9C118.4,46.8,141,70.2,141,98.7z"/>
	<path class="st0" d="M93.1,13l2.4,4.2c41.7,4.3,74.4,39.6,74.4,82.5c0,45.7-37.2,82.9-82.9,82.9S4,145.4,4,99.7
		c0-42.8,32.7-78.2,74.4-82.5l2.4-4.2C35.6,16.2,0,53.8,0,99.7c0,48,38.9,86.9,86.9,86.9s86.9-38.9,86.9-86.9
		C173.8,53.8,138.2,16.2,93.1,13z"/>
</g>
<polygon class="st0" points="84,13 89.8,13 84.2,25.5 96,24 86.4,46.2 89.7,29.6 78.1,30.5 "/>
<g>
	<path class="st0" d="M93.7,39.3l-6.8,12.1l-6.8-12.1c-30.4,3.4-54,29.1-54,60.4c0,33.6,27.2,60.8,60.8,60.8s60.8-27.2,60.8-60.8
		C147.7,68.4,124.1,42.7,93.7,39.3z M124.6,120.6c0.3,1.9-0.1,3.9-1.2,5.5c-1.5,2.1-4.3,3.1-8,3.1c-7.1,0-17.5-3.7-28.5-10.3
		c-1.1,0.6-2.1,1.3-3.2,1.8c0.1,0.5,0.2,1.1,0.2,1.6c0,3.2-2.6,5.8-5.8,5.8c-1.9,0-3.7-0.9-4.7-2.5c-5.8,2.3-11,3.5-15,3.5
		c-3.7,0-6.5-1-8-3.1c-2-2.7-1.6-6.9,0.7-11.8c-2.2-2.3-2.1-5.9,0.1-8.1c1.1-1,2.5-1.6,4-1.6c0.6,0,1.3,0.1,1.9,0.3
		c1.5-1.9,3.1-3.8,4.9-5.7c-10.6-11-15.6-21.7-11.8-26.9c1.5-2.1,4.4-3.1,8-3.1c2.7,0.1,5.3,0.4,7.9,1.2c2-2.5,5.7-2.8,8.1-0.8
		c1.3,1.1,2.1,2.7,2.1,4.4c3.6,1.6,7,3.4,10.4,5.4c11-6.6,21.4-10.3,28.5-10.3c3.7,0,6.5,1,8,3.1c2,2.7,1.6,6.8-0.6,11.7
		c2.1,2.4,1.9,6-0.5,8.1c-1.1,0.9-2.4,1.5-3.8,1.5c-0.5,0-1.1-0.1-1.6-0.2c-1.5,1.9-3.2,3.9-5.1,5.9c3.3,3.4,6.3,7.2,8.8,11.2h0.4
		c3.2,0,5.8,2.6,5.8,5.8C126.7,117.8,125.9,119.5,124.6,120.6z"/>
	<path class="st0" d="M86.9,4.1l12.8,22.7L86.9,49.4L74.1,26.8L86.9,4.1 M86.9,0l-15,26.8l15,26.6l15-26.6L86.9,0L86.9,0z"/>
</g>
</svg>
